<?xml version="1.0" encoding="UTF-8" standalone="no"?>
<!DOCTYPE svg PUBLIC "-//W3C//DTD SVG 1.1//EN"
 "http://www.w3.org/Graphics/SVG/1.1/DTD/svg11.dtd">
<!-- Generated by graphviz version 2.38.0 (20140413.2041)
 -->
<!-- Title: G Pages: 1 -->
<svg width="685pt" height="894pt"
 viewBox="0.00 0.00 685.09 894.00" xmlns="http://www.w3.org/2000/svg" xmlns:xlink="http://www.w3.org/1999/xlink">
<g id="graph0" class="graph" transform="scale(1 1) rotate(0) translate(4 890)">
<title>G</title>
<polygon fill="white" stroke="none" points="-4,4 -4,-890 681.091,-890 681.091,4 -4,4"/>
<g id="clust1" class="cluster"><title>cluster_Global</title>
<path fill="none" stroke="gray" d="M168.091,-8C168.091,-8 657.091,-8 657.091,-8 663.091,-8 669.091,-14 669.091,-20 669.091,-20 669.091,-866 669.091,-866 669.091,-872 663.091,-878 657.091,-878 657.091,-878 168.091,-878 168.091,-878 162.091,-878 156.091,-872 156.091,-866 156.091,-866 156.091,-20 156.091,-20 156.091,-14 162.091,-8 168.091,-8"/>
<text text-anchor="middle" x="412.591" y="-865.2" font-family="Times New Roman,serif" font-size="11.00" fill="gray">Global</text>
</g>
<g id="clust2" class="cluster"><title>cluster_\Xtractor</title>
<path fill="none" stroke="gray" d="M176.091,-16C176.091,-16 649.091,-16 649.091,-16 655.091,-16 661.091,-22 661.091,-28 661.091,-28 661.091,-838 661.091,-838 661.091,-844 655.091,-850 649.091,-850 649.091,-850 176.091,-850 176.091,-850 170.091,-850 164.091,-844 164.091,-838 164.091,-838 164.091,-28 164.091,-28 164.091,-22 170.091,-16 176.091,-16"/>
<text text-anchor="middle" x="412.591" y="-837.2" font-family="Times New Roman,serif" font-size="11.00" fill="gray">Xtractor</text>
</g>
<g id="clust3" class="cluster"><title>cluster_\Xtractor\Http</title>
<path fill="none" stroke="gray" d="M325.091,-480C325.091,-480 394.091,-480 394.091,-480 400.091,-480 406.091,-486 406.091,-492 406.091,-492 406.091,-810 406.091,-810 406.091,-816 400.091,-822 394.091,-822 394.091,-822 325.091,-822 325.091,-822 319.091,-822 313.091,-816 313.091,-810 313.091,-810 313.091,-492 313.091,-492 313.091,-486 319.091,-480 325.091,-480"/>
<text text-anchor="middle" x="359.591" y="-809.2" font-family="Times New Roman,serif" font-size="11.00" fill="gray">Http</text>
</g>
<g id="clust4" class="cluster"><title>cluster_\Xtractor\Client</title>
<path fill="none" stroke="gray" d="M474.091,-78C474.091,-78 520.091,-78 520.091,-78 526.091,-78 532.091,-84 532.091,-90 532.091,-90 532.091,-138 532.091,-138 532.091,-144 526.091,-150 520.091,-150 520.091,-150 474.091,-150 474.091,-150 468.091,-150 462.091,-144 462.091,-138 462.091,-138 462.091,-90 462.091,-90 462.091,-84 468.091,-78 474.091,-78"/>
<text text-anchor="middle" x="497.091" y="-137.2" font-family="Times New Roman,serif" font-size="11.00" fill="gray">Client</text>
</g>
<g id="clust5" class="cluster"><title>cluster_\Xtractor\Utils</title>
<path fill="none" stroke="gray" d="M325.091,-292C325.091,-292 394.091,-292 394.091,-292 400.091,-292 406.091,-298 406.091,-304 406.091,-304 406.091,-460 406.091,-460 406.091,-466 400.091,-472 394.091,-472 394.091,-472 325.091,-472 325.091,-472 319.091,-472 313.091,-466 313.091,-460 313.091,-460 313.091,-304 313.091,-304 313.091,-298 319.091,-292 325.091,-292"/>
<text text-anchor="middle" x="359.591" y="-459.2" font-family="Times New Roman,serif" font-size="11.00" fill="gray">Utils</text>
</g>
<g id="clust6" class="cluster"><title>cluster_\Xtractor\Auth</title>
<path fill="none" stroke="gray" d="M325.091,-24C325.091,-24 394.091,-24 394.091,-24 400.091,-24 406.091,-30 406.091,-36 406.091,-36 406.091,-138 406.091,-138 406.091,-144 400.091,-150 394.091,-150 394.091,-150 325.091,-150 325.091,-150 319.091,-150 313.091,-144 313.091,-138 313.091,-138 313.091,-36 313.091,-36 313.091,-30 319.091,-24 325.091,-24"/>
<text text-anchor="middle" x="359.591" y="-137.2" font-family="Times New Roman,serif" font-size="11.00" fill="gray">Auth</text>
</g>
<g id="clust7" class="cluster"><title>cluster_\Xtractor\IO</title>
<path fill="none" stroke="gray" d="M325.091,-158C325.091,-158 394.091,-158 394.091,-158 400.091,-158 406.091,-164 406.091,-170 406.091,-170 406.091,-272 406.091,-272 406.091,-278 400.091,-284 394.091,-284 394.091,-284 325.091,-284 325.091,-284 319.091,-284 313.091,-278 313.091,-272 313.091,-272 313.091,-170 313.091,-170 313.091,-164 319.091,-158 325.091,-158"/>
<text text-anchor="middle" x="359.591" y="-271.2" font-family="Times New Roman,serif" font-size="11.00" fill="gray">IO</text>
</g>
<!-- \\Xtractor\\Http\\Options -->
<g id="node1" class="node"><title>\\Xtractor\\Http\\Options</title>
<polygon fill="none" stroke="black" points="391.591,-794 327.591,-794 327.591,-758 391.591,-758 391.591,-794"/>
<text text-anchor="middle" x="359.591" y="-773.2" font-family="Courier,monospace" font-size="11.00">Options</text>
</g>
<!-- \\Xtractor\\Http\\Body -->
<g id="node2" class="node"><title>\\Xtractor\\Http\\Body</title>
<polygon fill="none" stroke="black" points="386.591,-740 332.591,-740 332.591,-704 386.591,-704 386.591,-740"/>
<text text-anchor="middle" x="359.591" y="-719.2" font-family="Courier,monospace" font-size="11.00">Body</text>
</g>
<!-- \\Xtractor\\Http\\Exception -->
<g id="node3" class="node"><title>\\Xtractor\\Http\\Exception</title>
<polygon fill="none" stroke="black" points="398.091,-686 321.091,-686 321.091,-650 398.091,-650 398.091,-686"/>
<text text-anchor="middle" x="359.591" y="-665.2" font-family="Courier,monospace" font-size="11.00">Exception</text>
</g>
<!-- \\Xtractor\\Exception -->
<g id="node15" class="node"><title>\\Xtractor\\Exception</title>
<polygon fill="none" stroke="black" points="249.091,-296 172.091,-296 172.091,-260 249.091,-260 249.091,-296"/>
<text text-anchor="middle" x="210.591" y="-275.2" font-family="Courier,monospace" font-size="11.00">Exception</text>
</g>
<!-- \\Xtractor\\Http\\Exception&#45;&gt;\\Xtractor\\Exception -->
<g id="edge3" class="edge"><title>\\Xtractor\\Http\\Exception&#45;&gt;\\Xtractor\\Exception</title>
<path fill="none" stroke="black" d="M321.72,-649.718C318.507,-647.11 315.55,-644.208 313.091,-641 232.961,-536.453 216.089,-371.884 212.538,-306.323"/>
<polygon fill="none" stroke="black" points="216.033,-306.143 212.06,-296.321 209.041,-306.477 216.033,-306.143"/>
</g>
<!-- \\Xtractor\\Http\\Header -->
<g id="node4" class="node"><title>\\Xtractor\\Http\\Header</title>
<polygon fill="none" stroke="black" points="388.091,-632 331.091,-632 331.091,-596 388.091,-596 388.091,-632"/>
<text text-anchor="middle" x="359.591" y="-611.2" font-family="Courier,monospace" font-size="11.00">Header</text>
</g>
<!-- \\Xtractor\\Http\\Response -->
<g id="node5" class="node"><title>\\Xtractor\\Http\\Response</title>
<polygon fill="none" stroke="black" points="395.091,-578 324.091,-578 324.091,-542 395.091,-542 395.091,-578"/>
<text text-anchor="middle" x="359.591" y="-557.2" font-family="Courier,monospace" font-size="11.00">Response</text>
</g>
<!-- \\Xtractor\\Http\\Request -->
<g id="node6" class="node"><title>\\Xtractor\\Http\\Request</title>
<polygon fill="none" stroke="black" points="391.591,-524 327.591,-524 327.591,-488 391.591,-488 391.591,-524"/>
<text text-anchor="middle" x="359.591" y="-503.2" font-family="Courier,monospace" font-size="11.00">Request</text>
</g>
<!-- \\Xtractor\\Client\\Base -->
<g id="node7" class="node"><title>\\Xtractor\\Client\\Base</title>
<polygon fill="none" stroke="black" points="524.091,-122 470.091,-122 470.091,-86 524.091,-86 524.091,-122"/>
<text text-anchor="middle" x="497.091" y="-101.2" font-family="Courier,monospace" font-size="11.00">Base</text>
</g>
<!-- \\Xtractor\\Auth\\Base -->
<g id="node11" class="node"><title>\\Xtractor\\Auth\\Base</title>
<polygon fill="none" stroke="black" points="386.591,-122 332.591,-122 332.591,-86 386.591,-86 386.591,-122"/>
<text text-anchor="middle" x="359.591" y="-101.2" font-family="Courier,monospace" font-size="11.00">Base</text>
</g>
<!-- \\Xtractor\\Client\\Base&#45;&gt;\\Xtractor\\Auth\\Base -->
<g id="edge1" class="edge"><title>\\Xtractor\\Client\\Base&#45;&gt;\\Xtractor\\Auth\\Base</title>
<path fill="none" stroke="black" d="M469.965,-104C449.158,-104 419.799,-104 396.736,-104"/>
<polygon fill="none" stroke="black" points="396.637,-100.5 386.637,-104 396.637,-107.5 396.637,-100.5"/>
</g>
<!-- \\Xtractor\\Utils\\Url -->
<g id="node8" class="node"><title>\\Xtractor\\Utils\\Url</title>
<polygon fill="none" stroke="black" points="386.591,-444 332.591,-444 332.591,-408 386.591,-408 386.591,-444"/>
<text text-anchor="middle" x="359.591" y="-423.2" font-family="Courier,monospace" font-size="11.00">Url</text>
</g>
<!-- \\Xtractor\\Utils\\Exception -->
<g id="node9" class="node"><title>\\Xtractor\\Utils\\Exception</title>
<polygon fill="none" stroke="black" points="398.091,-390 321.091,-390 321.091,-354 398.091,-354 398.091,-390"/>
<text text-anchor="middle" x="359.591" y="-369.2" font-family="Courier,monospace" font-size="11.00">Exception</text>
</g>
<!-- \\Xtractor\\Utils\\Exception&#45;&gt;\\Xtractor\\Exception -->
<g id="edge2" class="edge"><title>\\Xtractor\\Utils\\Exception&#45;&gt;\\Xtractor\\Exception</title>
<path fill="none" stroke="black" d="M327.632,-353.898C322.743,-350.962 317.762,-347.925 313.091,-345 290.9,-331.103 266.391,-314.948 247.017,-301.983"/>
<polygon fill="none" stroke="black" points="248.757,-298.937 238.503,-296.271 244.857,-304.749 248.757,-298.937"/>
</g>
<!-- \\Xtractor\\Utils\\Files -->
<g id="node10" class="node"><title>\\Xtractor\\Utils\\Files</title>
<polygon fill="none" stroke="black" points="386.591,-336 332.591,-336 332.591,-300 386.591,-300 386.591,-336"/>
<text text-anchor="middle" x="359.591" y="-315.2" font-family="Courier,monospace" font-size="11.00">Files</text>
</g>
<!-- \\Xtractor\\Auth\\Exception -->
<g id="node12" class="node"><title>\\Xtractor\\Auth\\Exception</title>
<polygon fill="none" stroke="black" points="398.091,-68 321.091,-68 321.091,-32 398.091,-32 398.091,-68"/>
<text text-anchor="middle" x="359.591" y="-47.2" font-family="Courier,monospace" font-size="11.00">Exception</text>
</g>
<!-- \\Xtractor\\Auth\\Exception&#45;&gt;\\Xtractor\\Exception -->
<g id="edge7" class="edge"><title>\\Xtractor\\Auth\\Exception&#45;&gt;\\Xtractor\\Exception</title>
<path fill="none" stroke="black" d="M323.251,-68.1278C319.582,-70.8155 316.101,-73.7783 313.091,-77 264.623,-128.878 233.841,-208.306 220.044,-250.088"/>
<polygon fill="none" stroke="black" points="216.631,-249.268 216.902,-259.859 223.295,-251.411 216.631,-249.268"/>
</g>
<!-- \\Xtractor\\IO\\Curl -->
<g id="node13" class="node"><title>\\Xtractor\\IO\\Curl</title>
<polygon fill="none" stroke="black" points="386.591,-256 332.591,-256 332.591,-220 386.591,-220 386.591,-256"/>
<text text-anchor="middle" x="359.591" y="-235.2" font-family="Courier,monospace" font-size="11.00">Curl</text>
</g>
<!-- \\Xtractor\\IO\\Exception -->
<g id="node14" class="node"><title>\\Xtractor\\IO\\Exception</title>
<polygon fill="none" stroke="black" points="398.091,-202 321.091,-202 321.091,-166 398.091,-166 398.091,-202"/>
<text text-anchor="middle" x="359.591" y="-181.2" font-family="Courier,monospace" font-size="11.00">Exception</text>
</g>
<!-- \\Xtractor\\IO\\Exception&#45;&gt;\\Xtractor\\Exception -->
<g id="edge5" class="edge"><title>\\Xtractor\\IO\\Exception&#45;&gt;\\Xtractor\\Exception</title>
<path fill="none" stroke="black" d="M327.632,-202.102C322.743,-205.038 317.762,-208.075 313.091,-211 290.9,-224.897 266.391,-241.052 247.017,-254.017"/>
<polygon fill="none" stroke="black" points="244.857,-251.251 238.503,-259.729 248.757,-257.063 244.857,-251.251"/>
</g>
<!-- \\Exception -->
<g id="node17" class="node"><title>\\Exception</title>
<ellipse fill="none" stroke="black" cx="50.0456" cy="-278" rx="50.0912" ry="18"/>
<text text-anchor="middle" x="50.0456" y="-274.3" font-family="Times New Roman,serif" font-size="14.00" fill="gray">\Exception</text>
</g>
<!-- \\Xtractor\\Exception&#45;&gt;\\Exception -->
<g id="edge4" class="edge"><title>\\Xtractor\\Exception&#45;&gt;\\Exception</title>
<path fill="none" stroke="black" d="M172.018,-278C153.687,-278 131.198,-278 110.605,-278"/>
<polygon fill="none" stroke="black" points="110.358,-274.5 100.358,-278 110.358,-281.5 110.358,-274.5"/>
</g>
<!-- \\Xtractor\\Client -->
<g id="node16" class="node"><title>\\Xtractor\\Client</title>
<polygon fill="none" stroke="black" points="653.091,-122 596.091,-122 596.091,-86 653.091,-86 653.091,-122"/>
<text text-anchor="middle" x="624.591" y="-101.2" font-family="Courier,monospace" font-size="11.00">Client</text>
</g>
<!-- \\Xtractor\\Client&#45;&gt;\\Xtractor\\Client\\Base -->
<g id="edge6" class="edge"><title>\\Xtractor\\Client&#45;&gt;\\Xtractor\\Client\\Base</title>
<path fill="none" stroke="black" d="M596.05,-104C577.946,-104 554.061,-104 534.408,-104"/>
<polygon fill="none" stroke="black" points="534.281,-100.5 524.281,-104 534.281,-107.5 534.281,-100.5"/>
</g>
</g>
</svg>
